<?xml version="1.0" encoding="UTF-8"?>
<svg width="91.44mm" height="91.44mm" clip-rule="evenodd" fill-rule="evenodd" image-rendering="optimizeQuality"
  shape-rendering="geometricPrecision" text-rendering="geometricPrecision" version="1.1" viewBox="0 0 9144 9144"
  xmlns="http://www.w3.org/2000/svg">
  <defs>
    <style type="text/css">
      .fil1 {
        fill: white;
        fill-rule: nonzero
      }

      .fil0 {
        fill: url(#a)
      }
    </style>
    <linearGradient id="a" x1="10043" x2="-898.9" y1="6303" y2="2841" gradientUnits="userSpaceOnUse">
      <stop stop-color="#a98b98" offset="0" />
      <stop stop-color="#4e3d53" offset="1" />
    </linearGradient>
  </defs>
  <polygon class="fil0" points="0 0 9144 0 9144 9144 0 9144" />
  <path class="fil1"
    d="m4572 2367c609 0 1160 247 1559 646s646 950 646 1559-247 1160-646 1559-950 646-1559 646-1160-247-1559-646-646-950-646-1559 247-1160 646-1559 950-646 1559-646zm1434 771c-367-367-874-594-1434-594s-1067 227-1434 594-594 874-594 1434 227 1067 594 1434 874 594 1434 594 1067-227 1434-594 594-874 594-1434-227-1067-594-1434z" />
  <path class="fil1"
    d="m4890 6036h-635c-49 0-89-39-89-88v-1799c0-49 40-89 89-89h635c48 0 88 40 88 89v1799c0 49-40 88-88 88zm-547-176h458v-1623h-458v1623z" />
  <path class="fil1"
    d="m4978 3196v635c0 49-40 88-88 88h-635c-49 0-89-39-89-88v-635c0-49 40-88 89-88h635c48 0 88 39 88 88zm-177 547v-459h-458v459h458z" />
</svg>